<svg xmlns="http://www.w3.org/2000/svg" xmlns:xlink="http://www.w3.org/1999/xlink" id="Layer_1" x="0" y="0" version="1.1" viewBox="0 0 512 512" xml:space="preserve" style="enable-background:new 0 0 512 512"><style type="text/css">.st0{fill:url(#SVGID_1_)}.st1{fill:#fff}</style><linearGradient id="SVGID_1_" x1="40.739" x2="586.222" y1="470.924" y2="-74.559" gradientUnits="userSpaceOnUse"><stop offset=".001" style="stop-color:#fbe18a"/><stop offset=".209" style="stop-color:#fcbb45"/><stop offset=".377" style="stop-color:#f75274"/><stop offset=".524" style="stop-color:#d53692"/><stop offset=".739" style="stop-color:#8f39ce"/><stop offset="1" style="stop-color:#5b4fe9"/></linearGradient><circle cx="255.976" cy="255.687" r="252.41" class="st0"/><g><circle cx="345.329" cy="167.778" r="19.609" class="st1"/><path d="M258.1521,173.3155c-45.419,0-82.3722,36.952-82.3722,82.371s36.9532,82.3709,82.3722,82.3709 s82.3697-36.9519,82.3697-82.3709S303.5711,173.3155,258.1521,173.3155z M258.1521,308.451 c-29.0947,0-52.7658-23.6693-52.7658-52.7646c0-29.0947,23.6711-52.7639,52.7658-52.7639s52.7627,23.6692,52.7627,52.7639 C310.9148,284.7818,287.2469,308.451,258.1521,308.451z" class="st1"/><g><path d="M323.5443,422.9243h-133.537c-55.3983,0-100.4662-45.0678-100.4662-100.4662V188.9154 c0-55.399,45.0678-100.4662,100.4662-100.4662h133.537c55.3983,0,100.4718,45.0672,100.4718,100.4662v133.5427 C424.0161,377.8564,378.9427,422.9243,323.5443,422.9243z M190.0073,119.9159c-38.0489,0-68.9995,30.9506-68.9995,68.9995 v133.5427c0,38.0489,30.9506,68.9995,68.9995,68.9995h133.537c38.0489,0,69.0052-30.9506,69.0052-68.9995V188.9154 c0-38.0489-30.9563-68.9995-69.0052-68.9995H190.0073z" class="st1"/></g></g></svg>